<mxfile host="app.diagrams.net" modified="2023-09-24T01:42:37.884Z" agent="Mozilla/5.0 (Windows NT 10.0; Win64; x64) AppleWebKit/537.36 (KHTML, like Gecko) Chrome/117.0.0.0 Safari/537.36 Edg/117.0.2045.36" etag="smOeY30oxAsNyqNiMFSo" version="21.8.1" type="github">
  <diagram name="Page-1" id="2ZmHrwPW8B42kuGjSxMW">
    <mxGraphModel dx="1357" dy="861" grid="1" gridSize="10" guides="1" tooltips="1" connect="1" arrows="1" fold="1" page="1" pageScale="1" pageWidth="850" pageHeight="1100" math="0" shadow="0">
      <root>
        <mxCell id="0" />
        <mxCell id="1" parent="0" />
        <mxCell id="xazudKi65sEEfD7xiTWK-3" value="" style="edgeStyle=orthogonalEdgeStyle;rounded=0;orthogonalLoop=1;jettySize=auto;html=1;" edge="1" parent="1" source="xazudKi65sEEfD7xiTWK-1" target="xazudKi65sEEfD7xiTWK-2">
          <mxGeometry relative="1" as="geometry" />
        </mxCell>
        <mxCell id="xazudKi65sEEfD7xiTWK-1" value="用户的问题（prompt_a）" style="rounded=1;whiteSpace=wrap;html=1;fillColor=#d5e8d4;strokeColor=#82b366;" vertex="1" parent="1">
          <mxGeometry x="290" y="100" width="230" height="50" as="geometry" />
        </mxCell>
        <mxCell id="xazudKi65sEEfD7xiTWK-5" value="" style="edgeStyle=orthogonalEdgeStyle;rounded=0;orthogonalLoop=1;jettySize=auto;html=1;" edge="1" parent="1" source="xazudKi65sEEfD7xiTWK-2" target="xazudKi65sEEfD7xiTWK-4">
          <mxGeometry relative="1" as="geometry" />
        </mxCell>
        <mxCell id="xazudKi65sEEfD7xiTWK-2" value="发送给语言模型的内容：&lt;br&gt;Function Description（json formated） + prompt_a + request_prompt + limit_prompt" style="whiteSpace=wrap;html=1;rounded=1;fillColor=#d5e8d4;strokeColor=#82b366;" vertex="1" parent="1">
          <mxGeometry x="270" y="180" width="270" height="60" as="geometry" />
        </mxCell>
        <mxCell id="xazudKi65sEEfD7xiTWK-7" value="" style="edgeStyle=orthogonalEdgeStyle;rounded=0;orthogonalLoop=1;jettySize=auto;html=1;" edge="1" parent="1" source="xazudKi65sEEfD7xiTWK-4" target="xazudKi65sEEfD7xiTWK-6">
          <mxGeometry relative="1" as="geometry" />
        </mxCell>
        <mxCell id="xazudKi65sEEfD7xiTWK-4" value="语言模型返回json内容" style="whiteSpace=wrap;html=1;rounded=1;fillColor=#dae8fc;strokeColor=#6c8ebf;" vertex="1" parent="1">
          <mxGeometry x="290" y="270" width="230" height="42.5" as="geometry" />
        </mxCell>
        <mxCell id="xazudKi65sEEfD7xiTWK-9" value="" style="edgeStyle=orthogonalEdgeStyle;rounded=0;orthogonalLoop=1;jettySize=auto;html=1;" edge="1" parent="1" source="xazudKi65sEEfD7xiTWK-6" target="xazudKi65sEEfD7xiTWK-8">
          <mxGeometry relative="1" as="geometry" />
        </mxCell>
        <mxCell id="xazudKi65sEEfD7xiTWK-6" value="语法过滤器、Json解析器" style="whiteSpace=wrap;html=1;rounded=1;fillColor=#dae8fc;strokeColor=#6c8ebf;" vertex="1" parent="1">
          <mxGeometry x="290" y="350" width="230" height="40" as="geometry" />
        </mxCell>
        <mxCell id="xazudKi65sEEfD7xiTWK-11" value="" style="edgeStyle=orthogonalEdgeStyle;rounded=0;orthogonalLoop=1;jettySize=auto;html=1;" edge="1" parent="1" source="xazudKi65sEEfD7xiTWK-8" target="xazudKi65sEEfD7xiTWK-10">
          <mxGeometry relative="1" as="geometry" />
        </mxCell>
        <mxCell id="xazudKi65sEEfD7xiTWK-8" value="&lt;font style=&quot;font-size: 11px;&quot;&gt;解析出请求的本地Python函数列表，如&lt;br style=&quot;font-size: 11px;&quot;&gt;&lt;font style=&quot;font-size: 11px;&quot; face=&quot;consolas&quot;&gt;web_keyword_search_via_bing(keyword)&lt;/font&gt;&lt;/font&gt;" style="whiteSpace=wrap;html=1;rounded=1;fillColor=#dae8fc;strokeColor=#6c8ebf;" vertex="1" parent="1">
          <mxGeometry x="280" y="420" width="250" height="50" as="geometry" />
        </mxCell>
        <mxCell id="xazudKi65sEEfD7xiTWK-13" value="" style="edgeStyle=orthogonalEdgeStyle;rounded=0;orthogonalLoop=1;jettySize=auto;html=1;" edge="1" parent="1" source="xazudKi65sEEfD7xiTWK-10" target="xazudKi65sEEfD7xiTWK-12">
          <mxGeometry relative="1" as="geometry" />
        </mxCell>
        <mxCell id="xazudKi65sEEfD7xiTWK-10" value="调用该函数并得到返回结果result_a" style="whiteSpace=wrap;html=1;rounded=1;fillColor=#dae8fc;strokeColor=#6c8ebf;" vertex="1" parent="1">
          <mxGeometry x="280" y="500" width="250" height="40" as="geometry" />
        </mxCell>
        <mxCell id="xazudKi65sEEfD7xiTWK-15" value="" style="edgeStyle=orthogonalEdgeStyle;rounded=0;orthogonalLoop=1;jettySize=auto;html=1;" edge="1" parent="1" source="xazudKi65sEEfD7xiTWK-12" target="xazudKi65sEEfD7xiTWK-14">
          <mxGeometry relative="1" as="geometry" />
        </mxCell>
        <mxCell id="xazudKi65sEEfD7xiTWK-12" value="发送给语言模型的内容：&lt;br&gt;request_prompt + prompt_a + result_a + limit_prompt" style="whiteSpace=wrap;html=1;rounded=1;fillColor=#d5e8d4;strokeColor=#82b366;" vertex="1" parent="1">
          <mxGeometry x="280" y="570" width="250" height="50" as="geometry" />
        </mxCell>
        <mxCell id="xazudKi65sEEfD7xiTWK-18" value="" style="edgeStyle=orthogonalEdgeStyle;rounded=0;orthogonalLoop=1;jettySize=auto;html=1;" edge="1" parent="1" source="xazudKi65sEEfD7xiTWK-14">
          <mxGeometry relative="1" as="geometry">
            <mxPoint x="405" y="750" as="targetPoint" />
          </mxGeometry>
        </mxCell>
        <mxCell id="xazudKi65sEEfD7xiTWK-14" value="语言模型返回json内容" style="whiteSpace=wrap;html=1;fillColor=#dae8fc;strokeColor=#6c8ebf;rounded=1;" vertex="1" parent="1">
          <mxGeometry x="280" y="650" width="250" height="50" as="geometry" />
        </mxCell>
        <mxCell id="xazudKi65sEEfD7xiTWK-26" style="edgeStyle=orthogonalEdgeStyle;rounded=0;orthogonalLoop=1;jettySize=auto;html=1;entryX=0;entryY=0.5;entryDx=0;entryDy=0;" edge="1" parent="1" source="xazudKi65sEEfD7xiTWK-22" target="xazudKi65sEEfD7xiTWK-10">
          <mxGeometry relative="1" as="geometry">
            <mxPoint x="180" y="520" as="targetPoint" />
            <Array as="points">
              <mxPoint x="181" y="860" />
              <mxPoint x="181" y="520" />
            </Array>
          </mxGeometry>
        </mxCell>
        <mxCell id="xazudKi65sEEfD7xiTWK-29" value="" style="edgeStyle=orthogonalEdgeStyle;rounded=0;orthogonalLoop=1;jettySize=auto;html=1;" edge="1" parent="1" source="xazudKi65sEEfD7xiTWK-22" target="xazudKi65sEEfD7xiTWK-28">
          <mxGeometry relative="1" as="geometry" />
        </mxCell>
        <mxCell id="xazudKi65sEEfD7xiTWK-22" value="是否需要再次调用" style="rhombus;whiteSpace=wrap;html=1;fillColor=#d5e8d4;strokeColor=#82b366;rounded=1;" vertex="1" parent="1">
          <mxGeometry x="283.75" y="830" width="242.5" height="60" as="geometry" />
        </mxCell>
        <mxCell id="xazudKi65sEEfD7xiTWK-25" value="" style="edgeStyle=orthogonalEdgeStyle;rounded=0;orthogonalLoop=1;jettySize=auto;html=1;" edge="1" parent="1" source="xazudKi65sEEfD7xiTWK-24" target="xazudKi65sEEfD7xiTWK-22">
          <mxGeometry relative="1" as="geometry" />
        </mxCell>
        <mxCell id="xazudKi65sEEfD7xiTWK-24" value="语法过滤器、Json解析器" style="whiteSpace=wrap;html=1;rounded=1;fillColor=#dae8fc;strokeColor=#6c8ebf;" vertex="1" parent="1">
          <mxGeometry x="280" y="750" width="250" height="40" as="geometry" />
        </mxCell>
        <mxCell id="xazudKi65sEEfD7xiTWK-27" value="是" style="text;html=1;align=center;verticalAlign=middle;resizable=0;points=[];autosize=1;strokeColor=none;fillColor=none;" vertex="1" parent="1">
          <mxGeometry x="220" y="830" width="40" height="30" as="geometry" />
        </mxCell>
        <mxCell id="xazudKi65sEEfD7xiTWK-28" value="信息整理并返回结果" style="whiteSpace=wrap;html=1;fillColor=#d5e8d4;strokeColor=#82b366;rounded=1;" vertex="1" parent="1">
          <mxGeometry x="280" y="920" width="250" height="50" as="geometry" />
        </mxCell>
        <mxCell id="xazudKi65sEEfD7xiTWK-30" value="否" style="text;html=1;align=center;verticalAlign=middle;resizable=0;points=[];autosize=1;strokeColor=none;fillColor=none;" vertex="1" parent="1">
          <mxGeometry x="405" y="890" width="40" height="30" as="geometry" />
        </mxCell>
        <mxCell id="xazudKi65sEEfD7xiTWK-35" value="&lt;div style=&quot;font-family: Consolas, &amp;quot;Courier New&amp;quot;, monospace; line-height: 22px; font-size: 11px;&quot;&gt;&lt;div style=&quot;font-size: 11px;&quot;&gt;&lt;span style=&quot;background-color: rgb(255, 255, 255);&quot;&gt;&lt;br&gt;&lt;/span&gt;&lt;/div&gt;&lt;div style=&quot;font-size: 11px;&quot;&gt;&lt;span style=&quot;background-color: rgb(255, 255, 255);&quot;&gt;Function Description 部分内容&lt;/span&gt;&lt;/div&gt;&lt;div style=&quot;color: rgb(204, 204, 204); font-size: 11px;&quot;&gt;&lt;span style=&quot;background-color: rgb(255, 255, 255);&quot;&gt;...&lt;/span&gt;&lt;/div&gt;&lt;div style=&quot;color: rgb(204, 204, 204); font-size: 11px;&quot;&gt;&lt;span style=&quot;background-color: rgb(255, 255, 255); font-size: 11px;&quot;&gt;{&lt;/span&gt;&lt;/div&gt;&lt;div style=&quot;color: rgb(204, 204, 204); font-size: 11px;&quot;&gt;&lt;span style=&quot;background-color: rgb(255, 255, 255); font-size: 11px;&quot;&gt;&amp;nbsp; &quot;res&quot;: &lt;span style=&quot;color: rgb(244, 71, 71); font-size: 11px;&quot;&gt;string&lt;/span&gt; &lt;span style=&quot;color: rgb(106, 153, 85); font-size: 11px;&quot;&gt;// 如没有找到对应的函数，这里正常输出内容。&lt;/span&gt;&lt;/span&gt;&lt;/div&gt;&lt;div style=&quot;color: rgb(204, 204, 204); font-size: 11px;&quot;&gt;&lt;span style=&quot;background-color: rgb(255, 255, 255); font-size: 11px;&quot;&gt;&amp;nbsp; &lt;span style=&quot;color: rgb(206, 145, 120); font-size: 11px;&quot;&gt;&quot;func_call&quot;&lt;/span&gt;&lt;span style=&quot;color: rgb(244, 71, 71); font-size: 11px;&quot;&gt;:&lt;/span&gt; [ &lt;span style=&quot;color: rgb(106, 153, 85); font-size: 11px;&quot;&gt;// 一个数组，里面包含了所有的函数调用，&lt;/span&gt;&lt;/span&gt;&lt;/div&gt;&lt;div style=&quot;color: rgb(204, 204, 204); font-size: 11px;&quot;&gt;&lt;span style=&quot;background-color: rgb(255, 255, 255); font-size: 11px;&quot;&gt;&lt;span style=&quot;color: rgb(106, 153, 85); font-size: 11px;&quot;&gt;&lt;span style=&quot;white-space: pre;&quot;&gt;&#x9;&lt;/span&gt;&lt;span style=&quot;white-space: pre;&quot;&gt;&#x9;&lt;/span&gt;&amp;nbsp; &amp;nbsp; 如没有函数调用，那么是空数组。&lt;/span&gt;&lt;/span&gt;&lt;/div&gt;&lt;div style=&quot;color: rgb(204, 204, 204); font-size: 11px;&quot;&gt;&lt;span style=&quot;background-color: rgb(255, 255, 255); font-size: 11px;&quot;&gt;&amp;nbsp; &amp;nbsp; &amp;nbsp; {&lt;/span&gt;&lt;/div&gt;&lt;div style=&quot;color: rgb(204, 204, 204); font-size: 11px;&quot;&gt;&lt;span style=&quot;background-color: rgb(255, 255, 255); font-size: 11px;&quot;&gt;&amp;nbsp; &amp;nbsp; &amp;nbsp; &amp;nbsp; &amp;nbsp; &lt;span style=&quot;color: rgb(156, 220, 254); font-size: 11px;&quot;&gt;&quot;res&quot;&lt;/span&gt;: &lt;span style=&quot;color: rgb(244, 71, 71); font-size: 11px;&quot;&gt;string&lt;/span&gt; &lt;span style=&quot;color: rgb(106, 153, 85); font-size: 11px;&quot;&gt;// 如没有找到对应函数，&lt;/span&gt;&lt;/span&gt;&lt;/div&gt;&lt;div style=&quot;color: rgb(204, 204, 204); font-size: 11px;&quot;&gt;&lt;span style=&quot;background-color: rgb(255, 255, 255); font-size: 11px;&quot;&gt;&lt;span style=&quot;color: rgb(106, 153, 85); font-size: 11px;&quot;&gt;&lt;span style=&quot;white-space: pre;&quot;&gt;&#x9;&lt;/span&gt;&lt;span style=&quot;white-space: pre;&quot;&gt;&#x9;&lt;/span&gt;&lt;span style=&quot;white-space: pre;&quot;&gt;&#x9;&lt;/span&gt;&amp;nbsp; &amp;nbsp;这里正常输出内容。&lt;/span&gt;&lt;/span&gt;&lt;/div&gt;&lt;div style=&quot;color: rgb(204, 204, 204); font-size: 11px;&quot;&gt;&lt;span style=&quot;background-color: rgb(255, 255, 255); font-size: 11px;&quot;&gt;&lt;span style=&quot;color: rgb(106, 153, 85); font-size: 11px;&quot;&gt;&lt;span style=&quot;white-space: pre;&quot;&gt;&#x9;&lt;/span&gt;&lt;span style=&quot;white-space: pre;&quot;&gt;&#x9;&lt;/span&gt;&lt;span style=&quot;white-space: pre;&quot;&gt;&#x9;&lt;/span&gt;&amp;nbsp; &amp;nbsp;如果有，这里是空字符串。&lt;/span&gt;&lt;/span&gt;&lt;/div&gt;&lt;div style=&quot;color: rgb(204, 204, 204); font-size: 11px;&quot;&gt;&lt;span style=&quot;background-color: rgb(255, 255, 255); font-size: 11px;&quot;&gt;&amp;nbsp; &amp;nbsp; &amp;nbsp; &amp;nbsp; &amp;nbsp; &lt;span style=&quot;color: rgb(206, 145, 120); font-size: 11px;&quot;&gt;&quot;name&quot;&lt;/span&gt;&lt;span style=&quot;color: rgb(244, 71, 71); font-size: 11px;&quot;&gt;:&lt;/span&gt; &lt;span style=&quot;color: rgb(244, 71, 71); font-size: 11px;&quot;&gt;str&lt;/span&gt;, &lt;span style=&quot;color: rgb(106, 153, 85); font-size: 11px;&quot;&gt;// 函数的名字&lt;/span&gt;&lt;/span&gt;&lt;/div&gt;&lt;div style=&quot;color: rgb(204, 204, 204); font-size: 11px;&quot;&gt;&lt;span style=&quot;background-color: rgb(255, 255, 255); font-size: 11px;&quot;&gt;&amp;nbsp; &amp;nbsp; &amp;nbsp; &amp;nbsp; &amp;nbsp; &lt;span style=&quot;color: rgb(156, 220, 254); font-size: 11px;&quot;&gt;&quot;args_type&quot;&lt;/span&gt;: {&lt;/span&gt;&lt;/div&gt;&lt;div style=&quot;color: rgb(204, 204, 204); font-size: 11px;&quot;&gt;&lt;span style=&quot;background-color: rgb(255, 255, 255); font-size: 11px;&quot;&gt;&amp;nbsp; &amp;nbsp; &amp;nbsp; &amp;nbsp; &amp;nbsp; &amp;nbsp; &amp;nbsp; &lt;span style=&quot;color: rgb(156, 220, 254); font-size: 11px;&quot;&gt;&quot;arg1&quot;&lt;/span&gt;: &lt;span style=&quot;color: rgb(244, 71, 71); font-size: 11px;&quot;&gt;str&lt;/span&gt;, &lt;span style=&quot;color: rgb(106, 153, 85); font-size: 11px;&quot;&gt;// 函数的参数的类型&lt;/span&gt;&lt;/span&gt;&lt;/div&gt;&lt;div style=&quot;color: rgb(204, 204, 204); font-size: 11px;&quot;&gt;&lt;span style=&quot;background-color: rgb(255, 255, 255); font-size: 11px;&quot;&gt;&amp;nbsp; &amp;nbsp; &amp;nbsp; &amp;nbsp; &amp;nbsp; &amp;nbsp; &amp;nbsp; &lt;span style=&quot;color: rgb(156, 220, 254); font-size: 11px;&quot;&gt;&quot;arg2&quot;&lt;/span&gt;: &lt;span style=&quot;color: rgb(244, 71, 71); font-size: 11px;&quot;&gt;str&lt;/span&gt;,&lt;/span&gt;&lt;/div&gt;&lt;div style=&quot;color: rgb(204, 204, 204); font-size: 11px;&quot;&gt;&lt;span style=&quot;background-color: rgb(255, 255, 255); font-size: 11px;&quot;&gt;&amp;nbsp; &amp;nbsp; &amp;nbsp; &amp;nbsp; &amp;nbsp; &amp;nbsp; &amp;nbsp; &lt;span style=&quot;color: rgb(244, 71, 71); font-size: 11px;&quot;&gt;...&lt;/span&gt;&lt;/span&gt;&lt;/div&gt;&lt;div style=&quot;color: rgb(204, 204, 204); font-size: 11px;&quot;&gt;&lt;span style=&quot;background-color: rgb(255, 255, 255); font-size: 11px;&quot;&gt;&amp;nbsp; &amp;nbsp; &amp;nbsp; &amp;nbsp; &amp;nbsp; },&lt;/span&gt;&lt;/div&gt;&lt;div style=&quot;color: rgb(204, 204, 204); font-size: 11px;&quot;&gt;&lt;span style=&quot;background-color: rgb(255, 255, 255); font-size: 11px;&quot;&gt;&amp;nbsp; &amp;nbsp; &amp;nbsp; &amp;nbsp; &amp;nbsp; &lt;span style=&quot;color: rgb(156, 220, 254); font-size: 11px;&quot;&gt;&quot;args&quot;&lt;/span&gt;: {&lt;/span&gt;&lt;/div&gt;&lt;div style=&quot;color: rgb(204, 204, 204); font-size: 11px;&quot;&gt;&lt;span style=&quot;background-color: rgb(255, 255, 255); font-size: 11px;&quot;&gt;&amp;nbsp; &amp;nbsp; &amp;nbsp; &amp;nbsp; &amp;nbsp; &amp;nbsp; &amp;nbsp; &lt;span style=&quot;color: rgb(156, 220, 254); font-size: 11px;&quot;&gt;&quot;arg1&quot;&lt;/span&gt;: &lt;span style=&quot;color: rgb(244, 71, 71); font-size: 11px;&quot;&gt;any&lt;/span&gt;, &lt;span style=&quot;color: rgb(106, 153, 85); font-size: 11px;&quot;&gt;// 函数的参数&lt;/span&gt;&lt;/span&gt;&lt;/div&gt;&lt;div style=&quot;color: rgb(204, 204, 204); font-size: 11px;&quot;&gt;&lt;span style=&quot;background-color: rgb(255, 255, 255); font-size: 11px;&quot;&gt;&amp;nbsp; &amp;nbsp; &amp;nbsp; &amp;nbsp; &amp;nbsp; &amp;nbsp; &amp;nbsp; &lt;span style=&quot;color: rgb(156, 220, 254); font-size: 11px;&quot;&gt;&quot;arg2&quot;&lt;/span&gt;: &lt;span style=&quot;color: rgb(244, 71, 71); font-size: 11px;&quot;&gt;any&lt;/span&gt;,&lt;/span&gt;&lt;/div&gt;&lt;div style=&quot;color: rgb(204, 204, 204); font-size: 11px;&quot;&gt;&lt;span style=&quot;background-color: rgb(255, 255, 255); font-size: 11px;&quot;&gt;&amp;nbsp; &amp;nbsp; &amp;nbsp; &amp;nbsp; &amp;nbsp; &amp;nbsp; &amp;nbsp; &lt;span style=&quot;color: rgb(244, 71, 71); font-size: 11px;&quot;&gt;...&lt;/span&gt;&lt;/span&gt;&lt;/div&gt;&lt;div style=&quot;color: rgb(204, 204, 204); font-size: 11px;&quot;&gt;&lt;span style=&quot;background-color: rgb(255, 255, 255); font-size: 11px;&quot;&gt;&amp;nbsp; &amp;nbsp; &amp;nbsp; &amp;nbsp; &amp;nbsp; }&lt;/span&gt;&lt;/div&gt;&lt;div style=&quot;color: rgb(204, 204, 204); font-size: 11px;&quot;&gt;&lt;span style=&quot;background-color: rgb(255, 255, 255); font-size: 11px;&quot;&gt;&amp;nbsp; &amp;nbsp; &amp;nbsp; },&lt;/span&gt;&lt;/div&gt;&lt;div style=&quot;color: rgb(204, 204, 204); font-size: 11px;&quot;&gt;&lt;span style=&quot;background-color: rgb(255, 255, 255); font-size: 11px;&quot;&gt;&amp;nbsp; &amp;nbsp; &amp;nbsp; &lt;span style=&quot;color: rgb(244, 71, 71); font-size: 11px;&quot;&gt;...&lt;/span&gt; &lt;span style=&quot;color: rgb(106, 153, 85); font-size: 11px;&quot;&gt;// 可能在这个问题中会有多个函数调用&lt;/span&gt;&lt;/span&gt;&lt;/div&gt;&lt;div style=&quot;color: rgb(204, 204, 204); font-size: 11px;&quot;&gt;&lt;span style=&quot;background-color: rgb(255, 255, 255); font-size: 11px;&quot;&gt;&amp;nbsp; ],&lt;/span&gt;&lt;/div&gt;&lt;div style=&quot;color: rgb(204, 204, 204); font-size: 11px;&quot;&gt;&lt;span style=&quot;background-color: rgb(255, 255, 255); font-size: 11px;&quot;&gt;}&lt;/span&gt;&lt;/div&gt;&lt;div style=&quot;color: rgb(204, 204, 204); font-size: 11px;&quot;&gt;&lt;span style=&quot;background-color: rgb(255, 255, 255);&quot;&gt;...&lt;/span&gt;&lt;/div&gt;&lt;/div&gt;" style="whiteSpace=wrap;html=1;align=left;strokeColor=none;fillColor=none;" vertex="1" parent="1">
          <mxGeometry x="580" y="90" width="370" height="610" as="geometry" />
        </mxCell>
      </root>
    </mxGraphModel>
  </diagram>
</mxfile>
